<svg xmlns="http://www.w3.org/2000/svg" xmlns:xlink="http://www.w3.org/1999/xlink" width="500" zoomAndPan="magnify" viewBox="0 0 375 374.999991" height="500" preserveAspectRatio="xMidYMid meet" version="1.0"><defs><g/></defs><rect x="-37.5" width="450" fill="#ffffff" y="-37.499999" height="449.999989" fill-opacity="1"/><rect x="-37.5" width="450" fill="#3f1e83" y="-37.499999" height="449.999989" fill-opacity="1"/><g fill="#ffffff" fill-opacity="1"><g transform="translate(147.70312, 260.624983)"><g><path d="M 53.71875 -80.34375 C 50.757812 -80.34375 47.847656 -80.597656 44.984375 -81.109375 C 42.128906 -81.617188 39.273438 -82.332031 36.421875 -83.25 C 36.929688 -82.332031 37.441406 -81.285156 37.953125 -80.109375 C 38.460938 -78.941406 38.972656 -77.644531 39.484375 -76.21875 C 40.804688 -72.4375 42.285156 -69.273438 43.921875 -66.734375 C 45.046875 -66.628906 46.09375 -66.550781 47.0625 -66.5 C 48.03125 -66.445312 49.078125 -66.316406 50.203125 -66.109375 C 52.953125 -65.503906 55.753906 -65.203125 58.609375 -65.203125 C 63.304688 -65.203125 67.644531 -66.425781 71.625 -68.875 C 70.90625 -63.5625 68.660156 -59.425781 64.890625 -56.46875 C 61.117188 -53.613281 57.035156 -51.625 52.640625 -50.5 C 53.460938 -48.96875 54.382812 -46.773438 55.40625 -43.921875 C 55.195312 -43.816406 55.015625 -43.765625 54.859375 -43.765625 C 54.710938 -43.765625 54.535156 -43.71875 54.328125 -43.625 C 50.960938 -42.800781 47.875 -41.90625 45.0625 -40.9375 C 42.257812 -39.96875 40.707031 -39.382812 40.40625 -39.1875 C 40.195312 -38.976562 38.945312 -38.207031 36.65625 -36.875 C 34.363281 -35.550781 31.890625 -33.867188 29.234375 -31.828125 L 29.234375 -32.90625 C 29.234375 -36.164062 28.953125 -39.351562 28.390625 -42.46875 C 27.828125 -45.582031 27.140625 -48.722656 26.328125 -51.890625 C 24.585938 -52.296875 22.820312 -52.648438 21.03125 -52.953125 C 19.25 -53.253906 17.441406 -53.40625 15.609375 -53.40625 C 14.585938 -53.40625 13.566406 -53.351562 12.546875 -53.25 C 11.523438 -53.15625 10.453125 -52.953125 9.328125 -52.640625 C 9.640625 -55.609375 11.171875 -58.007812 13.921875 -59.84375 C 16.578125 -61.570312 19.84375 -63 23.71875 -64.125 C 23.613281 -64.9375 23.535156 -65.773438 23.484375 -66.640625 C 23.441406 -67.515625 23.421875 -68.515625 23.421875 -69.640625 C 23.421875 -72.285156 23.625 -75.210938 24.03125 -78.421875 C 24.4375 -81.640625 25.203125 -84.425781 26.328125 -86.78125 C 25.710938 -86.976562 25.300781 -87.128906 25.09375 -87.234375 C 23.363281 -87.953125 21.707031 -88.566406 20.125 -89.078125 C 18.539062 -89.585938 17.035156 -90.097656 15.609375 -90.609375 C 12.753906 -91.523438 10.050781 -91.984375 7.5 -91.984375 C 4.644531 -91.984375 2.144531 -91.21875 0 -89.6875 C 2.445312 -103.457031 11.882812 -110.34375 28.3125 -110.34375 C 32.1875 -110.34375 36.085938 -110.007812 40.015625 -109.34375 C 43.941406 -108.6875 47.847656 -107.898438 51.734375 -106.984375 C 54.585938 -106.265625 57.46875 -105.625 60.375 -105.0625 C 63.28125 -104.5 66.210938 -104.21875 69.171875 -104.21875 C 75.191406 -104.21875 80.753906 -106.003906 85.859375 -109.578125 C 86.066406 -108.660156 86.21875 -107.742188 86.3125 -106.828125 C 86.414062 -105.910156 86.46875 -105.039062 86.46875 -104.21875 C 86.46875 -100.039062 85.445312 -96.445312 83.40625 -93.4375 C 81.363281 -90.425781 78.734375 -87.953125 75.515625 -86.015625 C 72.304688 -84.078125 68.765625 -82.644531 64.890625 -81.71875 C 61.015625 -80.800781 57.289062 -80.34375 53.71875 -80.34375 Z M 33.359375 -103.609375 C 35.097656 -103.410156 36.601562 -103.03125 37.875 -102.46875 C 39.15625 -101.90625 39.84375 -101.722656 39.9375 -101.921875 C 40.144531 -102.128906 39.632812 -102.664062 38.40625 -103.53125 C 37.1875 -104.40625 35.707031 -105.144531 33.96875 -105.75 C 32.238281 -106.363281 30.609375 -106.742188 29.078125 -106.890625 C 27.546875 -107.046875 26.679688 -107.125 26.484375 -107.125 C 26.273438 -107.125 25.457031 -107.019531 24.03125 -106.8125 C 22.601562 -106.613281 21.175781 -106.257812 19.75 -105.75 C 18.113281 -105.144531 16.757812 -104.484375 15.6875 -103.765625 C 14.613281 -103.046875 14.128906 -102.585938 14.234375 -102.390625 C 14.441406 -102.179688 15.128906 -102.28125 16.296875 -102.6875 C 17.472656 -103.101562 18.773438 -103.410156 20.203125 -103.609375 C 21.734375 -103.921875 23.109375 -104.078125 24.328125 -104.078125 C 25.554688 -104.078125 26.273438 -104.078125 26.484375 -104.078125 C 26.679688 -104.078125 27.46875 -104.097656 28.84375 -104.140625 C 30.226562 -104.191406 31.734375 -104.015625 33.359375 -103.609375 Z M 44.234375 -100.09375 C 44.429688 -100.601562 44.125 -101.0625 43.3125 -101.46875 C 42.394531 -102.082031 41.832031 -102.082031 41.625 -101.46875 C 41.320312 -101.164062 41.628906 -100.707031 42.546875 -100.09375 C 43.265625 -99.6875 43.828125 -99.6875 44.234375 -100.09375 Z M 32.59375 0.453125 C 28.3125 0.453125 24.304688 -0.359375 20.578125 -1.984375 C 16.859375 -3.617188 13.617188 -6.019531 10.859375 -9.1875 C 15.046875 -10.101562 18.617188 -11.65625 21.578125 -13.84375 C 24.535156 -16.039062 26.628906 -19.28125 27.859375 -23.5625 C 30.609375 -24.894531 33.359375 -26.195312 36.109375 -27.46875 C 38.867188 -28.75 41.628906 -29.945312 44.390625 -31.0625 C 44.691406 -31.269531 46.066406 -32.035156 48.515625 -33.359375 C 50.960938 -34.691406 53.664062 -36.125 56.625 -37.65625 C 56.726562 -37.65625 56.882812 -37.753906 57.09375 -37.953125 C 57.695312 -35.710938 58.28125 -33.316406 58.84375 -30.765625 C 59.40625 -28.210938 59.6875 -25.765625 59.6875 -23.421875 L 59.6875 -22.5 C 59.6875 -18.925781 58.894531 -15.734375 57.3125 -12.921875 C 55.726562 -10.117188 53.660156 -7.722656 51.109375 -5.734375 C 48.566406 -3.742188 45.6875 -2.210938 42.46875 -1.140625 C 39.257812 -0.078125 35.96875 0.453125 32.59375 0.453125 Z M 32.59375 0.453125 "/></g></g></g></svg>